<?xml version="1.0" encoding="utf-8"?>
<!-- Generator: Adobe Illustrator 26.5.0, SVG Export Plug-In . SVG Version: 6.00 Build 0)  -->
<svg version="1.1" id="Layer_1" xmlns="http://www.w3.org/2000/svg" xmlns:xlink="http://www.w3.org/1999/xlink" x="0px" y="0px"
	 viewBox="0 0 130.3 58" style="enable-background:new 0 0 130.3 58;" xml:space="preserve">
<style type="text/css">
	.st0{fill:#FF748E;}
	.st1{fill:#6C63FF;}
	.st2{font-family:'Arial-BoldMT';}
	.st3{font-size:14.1202px;}
	.st4{font-size:14.2453px;}
</style>
<g transform="translate(-503.475 -538.798)">
	<path class="st0" d="M522.4,552.3c0,0-6.9-4.3-11.4-4.7c-4.5-0.5-9.5,1.1-6.7,11.6c1,3.8,4.5,8.6,7.5,11.3c3,2.7,6.6,4.7,10.5,5.8
		v-6.2c0,0-9-4.3-11.4-10c-2.4-5.7,6.4-2.5,9.3,0c2.9,2.5,2.1-3.7,2.1-3.7V552.3z"/>
	<path class="st1" d="M614.9,548.9c0,0,6.9-4.3,11.4-4.7s9.5,1.1,6.7,11.6c-1,3.8-4.5,8.6-7.5,11.3c-3,2.7-6.6,4.7-10.5,5.8v-6.2
		c0,0,9-4.3,11.4-10s-6.4-2.5-9.3,0s-2.1-3.7-2.1-3.7V548.9z"/>
	<text transform="matrix(1 0 0 1 522.6097 562.0416)" class="st0 st2 st3">ELECTRONIC</text>
	<text transform="matrix(0.9911 -1.750036e-02 1.765530e-02 0.9998 538.1424 578.2277)" class="st1 st2 st4">RECORD</text>
</g>
</svg>
