<svg xmlns="http://www.w3.org/2000/svg" width="130.303" height="58" viewBox="0 0 130.303 58"><g transform="translate(-503.475 -538.798)"><path d="M2096.617,3054.426s-11.729-7.243-19.408-8.063-16.161,1.864-11.309,19.687c1.756,6.452,7.681,14.681,12.792,19.264a43.759,43.759,0,0,0,17.925,9.884v-10.59s-15.376-7.3-19.408-17.067,10.928-4.325,15.78,0,3.628-6.264,3.628-6.264Z" transform="translate(-1561 -2507.139)" fill="#ff748e"/><path d="M2064.613,3054.426s11.729-7.243,19.408-8.063,16.161,1.864,11.309,19.687c-1.757,6.452-7.681,14.681-12.792,19.264a43.758,43.758,0,0,1-17.925,9.884v-10.59s15.376-7.3,19.408-17.067-10.928-4.325-15.78,0-3.628-6.264-3.628-6.264Z" transform="translate(-1462.977 -2507.139)" fill="#6c63ff"/><text transform="translate(536 563.798)" fill="#ff748e" font-size="24" font-family="Poppins-Bold, Poppins" font-weight="700"><tspan x="0" y="0">CLINI</tspan></text><text transform="matrix(-1, 0, 0, 1, 601, 588.798)" fill="#6c63ff" font-size="24" font-family="Poppins-Bold, Poppins" font-weight="700"><tspan x="0" y="0">CARE</tspan></text></g></svg>